<svg xmlns="http://www.w3.org/2000/svg" xmlns:xlink="http://www.w3.org/1999/xlink" xmlns:inkscape="http://www.inkscape.org/namespaces/inkscape" version="1.1" width="1080" height="1071.12" viewBox="0 0 1080 1071.12">
<defs>
<clipPath id="clip_0">
<path transform="matrix(1,0,0,-1,0,1071.12)" d="M0 1071.118H1080V0H0Z"/>
</clipPath>
</defs>
<g clip-path="url(#clip_0)">
<path transform="matrix(1,0,0,-1,1071.1218,536.7798)" d="M0 0C0-293.308-237.773-531.08-531.08-531.08-824.388-531.08-1062.161-293.308-1062.161 0-1062.161 293.308-824.388 531.08-531.08 531.08-237.773 531.08 0 293.308 0 0" fill="#ffffff"/>
<path transform="matrix(1,0,0,-1,540.0042,8.564575)" d="M0 0C-293.038 0-531.442-236.41-531.442-526.998-531.442-817.584-293.038-1053.993 0-1053.993 293.032-1053.993 531.433-817.584 531.433-526.998 531.433-236.41 293.032 0 0 0M0-1062.555C-297.76-1062.555-540.004-822.305-540.004-526.998-540.004-231.689-297.76 8.563 0 8.563 297.754 8.563 539.996-231.689 539.996-526.998 539.996-822.305 297.754-1062.555 0-1062.555" fill="#233364"/>
<path transform="matrix(1,0,0,-1,221.8235,540.098)" d="M0 0C0 176.177 142.819 318.994 318.992 318.994 495.169 318.994 637.986 176.177 637.986 0 637.986-176.173 495.169-318.991 318.992-318.991 142.819-318.991 0-176.173 0 0" fill="#243467"/>
<path transform="matrix(1,0,0,-1,67.7963,540.45339)" d="M0 0C2.712-262.926 215.021-474.981 474.293-474.981 475.932-474.981 477.557-474.973 479.201-474.956 740.706-472.258 951.236-254.807 948.508 9.781 945.798 272.707 733.487 484.766 474.212 484.766 472.573 484.766 470.951 484.758 469.306 484.741 207.801 482.044-2.729 264.589 0 0M474.29-483.544C210.318-483.544-5.8-267.722-8.563-.089-11.339 269.223 202.993 490.558 469.217 493.304 470.875 493.32 472.562 493.329 474.215 493.329 738.192 493.329 954.311 277.504 957.07 9.87 959.846-259.44 745.514-480.773 479.29-483.519 477.632-483.536 475.943-483.544 474.29-483.544" fill="#233364"/>
<path transform="matrix(1,0,0,-1,524.8848,337.2079)" d="M0 0 14.07 .853 45.792-521.588 31.718-522.441Z" fill="#ffffff"/>
<path transform="matrix(1,0,0,-1,547.1361,334.06233)" d="M0 0 13.646 3.536 143.139-496.339 129.493-499.874Z" fill="#ffffff"/>
<path transform="matrix(1,0,0,-1,503.0879,329.78919)" d="M0 0 13.758-3.066-98.757-507.684-112.516-504.612Z" fill="#ffffff"/>
<path transform="matrix(1,0,0,-1,548.2635,710.41238)" d="M0 0 8.145-11.5-144.958-119.916-153.103-108.408Z" fill="#ffffff"/>
<path transform="matrix(1,0,0,-1,642.3864,700.35269)" d="M0 0 12.309-6.851-71.526-157.37-83.84-150.511Z" fill="#ffffff"/>
<path transform="matrix(1,0,0,-1,684.9072,818.8481)" d="M0 0-9.594-10.307-134.801 106.398-125.185 116.72Z" fill="#ffffff"/>
<path transform="matrix(1,0,0,-1,561.2694,713.7265)" d="M0 0-10.059-9.859-120.842 103.276-110.766 113.148Z" fill="#ffffff"/>
<path transform="matrix(1,0,0,-1,566.3257,848.0426)" d="M0 0-9.976-9.94-144.126 124.822-134.132 134.776Z" fill="#ffffff"/>
<path transform="matrix(1,0,0,-1,547.9878,710.4347)" d="M0 0-.981-14.043-123.078-5.449-122.087 8.621Z" fill="#ffffff"/>
<path transform="matrix(1,0,0,-1,651.9608,683.428)" d="M0 0 3.632-13.605-101.404-41.584-105.038-27.951Z" fill="#ffffff"/>
<path transform="matrix(1,0,0,-1,597.1562,497.19374)" d="M0 0 3.626-13.606-56.117-29.529-59.748-15.896Z" fill="#ffffff"/>
<path transform="matrix(1,0,0,-1,573.7844,407.25898)" d="M0 0 3.626-13.606-39.845-25.198-43.475-11.565Z" fill="#ffffff"/>
<path transform="matrix(1,0,0,-1,645.7729,689.2201)" d="M0 0-8.805-10.991-100.863 62.838-92.038 73.846Z" fill="#ffffff"/>
<path transform="matrix(1,0,0,-1,547.6796,604.3752)" d="M0 0-11.243-8.479-82.243 85.776-70.975 94.269Z" fill="#ffffff"/>
<path transform="matrix(1,0,0,-1,629.272,602.2023)" d="M0 0-10.297-9.608-85.819 71.427-75.501 81.049Z" fill="#ffffff"/>
<path transform="matrix(1,0,0,-1,549.7006,527.1075)" d="M0 0-12.568-6.348-65.713 99.013-53.117 105.37Z" fill="#ffffff"/>
<path transform="matrix(1,0,0,-1,604.4062,503.13368)" d="M0 0-10.982-8.809-71.955 67.272-60.948 76.097Z" fill="#ffffff"/>
<path transform="matrix(1,0,0,-1,565.1298,715.17019)" d="M0 0-12.551 6.386 49.924 128.945 62.495 122.545Z" fill="#ffffff"/>
<path transform="matrix(1,0,0,-1,438.3799,711.7782)" d="M0 0-9.081 10.762 96.124 99.394 105.219 88.612Z" fill="#ffffff"/>
<path transform="matrix(1,0,0,-1,551.3883,618.3047)" d="M0 0-12.758 5.965 40.946 120.648 53.723 114.671Z" fill="#ffffff"/>
<path transform="matrix(1,0,0,-1,546.2399,527.7066)" d="M0 0-13.396 4.356 21.683 111.993 35.093 107.629Z" fill="#ffffff"/>
<path transform="matrix(1,0,0,-1,474.0453,521.6403)" d="M0 0-11.407 8.26 59.33 105.821 70.751 97.546Z" fill="#ffffff"/>
<path transform="matrix(1,0,0,-1,549.9875,608.5769)" d="M0 0-.419-14.076-107.877-10.823-107.453 3.281Z" fill="#ffffff"/>
<path transform="matrix(1,0,0,-1,545.1696,512.8292)" d="M0 0-.421-14.076-79.914-11.675-79.49 2.429Z" fill="#ffffff"/>
<path transform="matrix(1,0,0,-1,538.7783,417.81343)" d="M0 0-.422-14.076-54.942-12.434-54.516 1.67Z" fill="#ffffff"/>
<path transform="matrix(1,0,0,-1,540.5914,511.752)" d="M0 0 9.824-10.079-83.683-101.104-93.522-90.998Z" fill="#ffffff"/>
<path transform="matrix(1,0,0,-1,731.5616,483.14698)" d="M0 0C0 0-13.106-7.372-17.229-59.473L-115.025-33.128-128.416 24.216Z" fill="#ffffff"/>
<path transform="matrix(1,0,0,-1,776.9784,567.62136)" d="M0 0C0 0 50.885 16.919 21.864 70.946 21.864 70.946 6.952 96.906-37.88 81.246-37.88 81.246-44.684 76.261-53.896 41.403-53.896 41.403-27.653 40.048 0 0" fill="#ffffff"/>
<path transform="matrix(1,0,0,-1,463.1998,435.0349)" d="M0 0-112.847 24.173C-126.756 9.329-123.459-8.582-123.13-10.167L-11.737-41.696C-11.505-18.094-3.869-5.066 0 0" fill="#ffffff"/>
<path transform="matrix(1,0,0,-1,339.0114,408.4312)" d="M0 0-85.729 18.364-98.573-8.572-11.162-33.313C-5.792-5.224-1.416-.709 0 0" fill="#ffffff"/>
<path transform="matrix(1,0,0,-1,477.2172,438.0382)" d="M0 0C-13.973-19.339-12.069-37.919-11.231-42.802L.836-46.218 9.232-1.978Z" fill="#ffffff"/>
<path transform="matrix(1,0,0,-1,400.2158,690.519)" d="M0 0C1.951 19.98-14.319 34.251-14.319 34.251L-6.233 39.009C7.565 32.824 11.846 2.38 11.846 2.38ZM319.107 157.777 27.434 52.586 16.309 61.639-52.378 34.499V19.743L-54.435 19.06C-31.897 3.289-30.342-27.832-30.342-27.832L-42.402-33.18C-47.386 4.741-61.603 12.51-67.077 14.857L-134.607-7.598-98.329-56.413-28.102-27.854 367.481 121.128C355.392 146.83 319.107 157.777 319.107 157.777" fill="#ffffff"/>
<path transform="matrix(1,0,0,-1,388.245,656.5431)" d="M0 0C3.877-3.927 14.252-16.01 13.527-32.208L22.19-30.467C21.2-24.745 16.668-2.244 5.806 3.416ZM10.363-35.755 10.55-33.837C12.409-14.806-3.13-.937-3.289-.799L-4.772 .503 5.65 6.637 6.322 6.334C20.674-.099 25.053-30.123 25.231-31.397L25.418-32.73ZM-39.413-15.407C-20.671-30.197-17.504-55.087-17.025-60.652L-16.668-60.507 377.475 87.932C365.918 110.314 335.16 120.972 331.105 122.294L39.129 16.993 28.027 26.028-38.981-.447V-15.263ZM-120.315-42.306-85.872-88.651-31.932-66.715C-34.295-49.263-40.257-27.457-55.178-20.649ZM-86.842-92.127-124.959-40.843-55.042-17.595-54.543-17.808C-41.453-23.419-32.957-39.32-29.275-65.083L-19.874-60.913C-20.375-55.598-23.79-29.726-43.285-16.086L-45.612-14.457-41.835-13.204V1.493L28.534 29.298 39.68 20.226 331.038 125.303 331.489 125.167C332.994 124.712 368.525 113.737 380.741 87.759L381.399 86.36 379.953 85.816-15.629-63.165Z" fill="#243467"/>
<path transform="matrix(1,0,0,-1,320.5956,736.9171)" d="M0 0-31.04-14.45-62.08 35.257-38.77 42.638Z" fill="#ffffff"/>
<path transform="matrix(1,0,0,-1,513.0903,75.74457)" d="M0 0-.103-41.625-.077-41.629C.164-58.63 10.087-72.325 22.357-72.355 34.626-72.386 44.625-58.74 44.943-41.736L44.971-41.742 45.077-.116Z" fill="#ffffff"/>
<path transform="matrix(1,0,0,-1,517.2707,116.18628)" d="M0 0 .025-1.128C.231-15.718 8.379-27.607 18.187-27.632H18.218C28.018-27.632 36.21-15.792 36.481-1.215L36.514 .477 36.603 36.056 .089 36.149ZM18.218-36.195H18.165C4.396-36.16-6.768-22.687-8.351-4.903L-8.546-4.874-8.565-1.172-8.451 44.734 45.188 44.596 45.057-6.52 44.684-6.446C42.574-23.493 31.603-36.195 18.218-36.195" fill="#243467"/>
<path transform="matrix(1,0,0,-1,433.9647,108.98932)" d="M0 0 20.723-36.099 20.748-36.089C29.458-50.692 44.898-57.59 55.539-51.482 66.18-45.375 68.018-28.556 59.791-13.672L59.818-13.662 39.097 22.44Z" fill="#ffffff"/>
<path transform="matrix(1,0,0,-1,457.828,141.96082)" d="M0 0 .56-.924C8.036-13.46 21.042-19.677 29.543-14.798 38.058-9.912 39.24 4.456 32.183 17.229L31.405 18.635 13.65 49.566-18.017 31.39ZM23.04-25.036C13.215-25.036 2.601-18.926-4.811-8.37L-4.995-8.443-6.854-5.258-29.707 34.553 16.816 61.256 42.144 17.123 41.818 16.996C48.631 1.094 45.484-15.523 33.808-22.223 30.488-24.13 26.823-25.034 23.04-25.036" fill="#243467"/>
<path transform="matrix(1,0,0,-1,382.062,177.34162)" d="M0 0 35.996-20.902 36.012-20.88C50.858-29.172 67.679-27.426 73.839-16.816 80.001-6.206 73.184 9.278 58.618 18.055L58.636 18.077 22.64 38.981Z" fill="#ffffff"/>
<path transform="matrix(1,0,0,-1,419.176,193.94178)" d="M0 0 .987-.542C13.73-7.662 28.102-6.549 33.024 1.933 37.952 10.423 31.792 23.457 19.294 30.988L17.858 31.854-12.922 49.729-31.26 18.153ZM17.875-13.813C12.209-13.813 6.118-12.476 .164-9.726L.042-9.894-3.267-8.005-42.967 15.047-16.027 61.433 27.834 35.961 27.636 35.695C41.573 25.334 47.209 9.313 40.427-2.365 36.071-9.873 27.597-13.813 17.875-13.813" fill="#243467"/>
<path transform="matrix(1,0,0,-1,371.2887,262.4879)" d="M0 0 41.625-.104 41.628-.076C58.63 .165 72.326 10.087 72.355 22.356 72.386 34.626 58.742 44.627 41.738 44.944L41.742 44.972 .117 45.078Z" fill="#ffffff"/>
<path transform="matrix(1,0,0,-1,375.5821,258.2177)" d="M0 0 36.135-.091 37.272-.065C51.867 .141 63.757 8.288 63.78 18.095 63.805 27.912 51.956 36.121 37.364 36.394L35.675 36.425 .095 36.516ZM37.32-8.656-8.585-8.54-8.446 45.1 42.178 44.971 42.145 44.65C59.44 42.676 72.376 31.601 72.342 18.075 72.312 4.354 58.927-6.782 41.227-8.423L41.208-8.638Z" fill="#243467"/>
<path transform="matrix(1,0,0,-1,404.5319,341.6131)" d="M0 0 36.101 20.721 36.089 20.747C50.693 29.457 57.593 44.898 51.483 55.538 45.375 66.18 28.559 68.018 13.675 59.791L13.663 59.818-22.437 39.096Z" fill="#ffffff"/>
<path transform="matrix(1,0,0,-1,387.9412,304.09858)" d="M0 0 18.173-31.67 50.487-13.091C63.022-5.615 69.246 7.386 64.362 15.891 59.476 24.403 45.11 25.591 32.336 18.529L30.822 17.693ZM15.007-43.36-11.69 3.164 32.322 28.427 32.453 28.114C48.38 35.001 65.065 31.863 71.788 20.155 78.633 8.235 72.577-8.136 58.016-18.405L58.096-18.596 54.824-20.506Z" fill="#243467"/>
<path transform="matrix(1,0,0,-1,472.8845,393.5161)" d="M0 0 20.905 35.996 20.881 36.012C29.174 50.856 27.429 67.679 16.817 73.838 6.206 80.001-9.276 73.184-18.052 58.618L-18.076 58.634-38.978 22.64Z" fill="#ffffff"/>
<path transform="matrix(1,0,0,-1,439.7605,369.3236)" d="M0 0 31.572-18.341 50.267 13.907C57.386 26.648 56.273 41.02 47.792 45.942 39.299 50.873 26.268 44.713 18.739 32.216L17.872 30.781ZM34.677-30.045-11.707-3.105 13.764 40.756 14.031 40.556C24.389 54.492 40.414 60.13 52.09 53.347 63.928 46.477 66.896 29.388 59.537 13.276L59.727 13.149 57.731 9.653Z" fill="#243467"/>
<path transform="matrix(1,0,0,-1,558.0304,404.28913)" d="M0 0 .106 41.625 .078 41.628C-.164 58.629-10.085 72.326-22.354 72.354-34.625 72.386-44.625 58.74-44.942 41.737L-44.971 41.74-45.075 .117Z" fill="#ffffff"/>
<path transform="matrix(1,0,0,-1,517.2484,399.90199)" d="M0 0 36.511-.095 36.603 36.047 36.578 37.179C36.369 51.772 28.224 63.663 18.419 63.685H18.385C8.579 63.685 .393 51.846 .123 37.271L.086 35.394ZM45.052-8.68-8.585-8.54-8.46 42.04-8.139 42.011C-6.182 59.305 4.869 72.248 18.382 72.248H18.438C32.157 72.217 43.293 58.832 44.937 41.135L45.152 41.113 45.169 37.226Z" fill="#243467"/>
<path transform="matrix(1,0,0,-1,637.1573,371.0459)" d="M0 0-20.721 36.101-20.746 36.09C-29.456 50.692-44.898 57.593-55.538 51.482-66.182 45.375-68.019 28.557-59.791 13.675L-59.819 13.662-39.098-22.437Z" fill="#ffffff"/>
<path transform="matrix(1,0,0,-1,582.0121,356.92829)" d="M0 0 17.63-30.711 49.3-12.536 30.722 19.779C23.246 32.312 10.249 38.535 1.739 33.651-6.779 28.765-7.961 14.401-.9 1.628ZM14.464-42.398-10.74 1.509-10.441 1.643C-17.382 17.609-14.257 34.346-2.523 41.078 9.368 47.916 25.722 41.885 35.993 27.366L36.188 27.454 38.136 24.115 60.99-15.7Z" fill="#243467"/>
<path transform="matrix(1,0,0,-1,689.0601,302.69233)" d="M0 0-35.996 20.904-36.012 20.881C-50.855 29.172-67.679 27.427-73.836 16.816-80.002 6.205-73.184-9.279-58.618-18.054L-58.634-18.079-22.641-38.981Z" fill="#ffffff"/>
<path transform="matrix(1,0,0,-1,634.23,318.02973)" d="M0 0 30.636-17.792 48.976 13.785 16.73 32.481C3.989 39.598-10.38 38.489-15.302 30.004-20.236 21.514-14.079 8.482-1.578 .95ZM33.741-29.496-9.892-4.156-9.722-3.901C-23.809 6.453-29.526 22.57-22.708 34.304-15.81 46.185 1.385 49.131 17.552 41.665L17.677 41.832 20.983 39.944 60.683 16.89Z" fill="#243467"/>
<path transform="matrix(1,0,0,-1,699.8331,217.54492)" d="M0 0-41.626 .105-41.629 .077C-58.629-.164-72.326-10.087-72.354-22.356-72.387-34.628-58.74-44.628-41.737-44.944L-41.74-44.974-.117-45.079Z" fill="#ffffff"/>
<path transform="matrix(1,0,0,-1,659.9627,258.2414)" d="M0 0 35.483-.091 35.578 36.426-.56 36.517-1.698 36.492C-16.289 36.286-28.18 28.138-28.202 18.331-28.23 8.513-16.378 .304-1.787 .032ZM44.023-8.676-6.578-8.546-6.547-8.227C-23.857-6.26-36.801 4.818-36.765 18.352-36.734 32.072-23.35 43.208-5.653 44.85L-5.633 45.064-1.745 45.082 44.162 44.967Z" fill="#243467"/>
<path transform="matrix(1,0,0,-1,666.5887,138.41931)" d="M0 0-36.101-20.722-36.09-20.747C-50.691-29.456-57.592-44.898-51.482-55.538-45.375-66.182-28.556-68.019-13.675-59.791L-13.661-59.818 22.438-39.098Z" fill="#ffffff"/>
<path transform="matrix(1,0,0,-1,633.6447,162.26508)" d="M0 0-.953-.578C-13.488-8.055-19.709-21.056-14.826-29.56-9.937-38.076 4.426-39.255 17.198-32.199L18.803-31.31 49.536-13.671 31.36 18.001ZM.424-45.392C-9.374-45.393-17.903-41.406-22.251-33.823-29.086-21.921-23.057-5.577-8.54 4.694L-8.627 4.889-5.29 6.836 34.527 29.691 61.227-16.834 17.563-41.896 17.426-41.634C11.698-44.163 5.865-45.392 .424-45.392" fill="#243467"/>
<path transform="matrix(1,0,0,-1,598.2348,86.5163)" d="M0 0-20.902-35.997-20.88-36.014C-29.169-50.855-27.427-67.679-16.816-73.838-6.205-80.003 9.279-73.184 18.054-58.618L18.079-58.634 38.981-22.641Z" fill="#ffffff"/>
<path transform="matrix(1,0,0,-1,581.633,123.631229)" d="M0 0-.541-.987C-7.657-13.728-6.547-28.098 1.934-33.02 10.427-37.954 23.458-31.792 30.987-19.294L31.937-17.715 49.729 12.921 18.154 31.261ZM8.518-43.296C4.688-43.296 .984-42.372-2.366-40.425-14.249-33.529-17.192-16.334-9.725-.166L-9.892-.04-8.002 3.268 15.049 42.968 61.436 16.026 36.096-27.609 35.84-27.439C28.442-37.502 18.098-43.294 8.518-43.296" fill="#243467"/>
<path transform="matrix(1,0,0,-1,535.5612,184.47602)" d="M0 0C-30.627 0-55.543-24.916-55.543-55.542-55.543-86.168-30.627-111.084 0-111.084 30.624-111.084 55.54-86.168 55.54-55.542 55.54-24.916 30.624 0 0 0M0-119.646C-35.349-119.646-64.106-90.889-64.106-55.542-64.106-20.194-35.349 8.563 0 8.563 35.346 8.563 64.103-20.194 64.103-55.542 64.103-90.889 35.346-119.646 0-119.646" fill="#21386e"/>
<path transform="matrix(1,0,0,-1,404.7856,606.3612)" d="M0 0-6.118 15.845-62.629-6.001-56.506-21.844-38.058-14.717-24.436-49.416-3.072-41.027-16.649-6.439Z" fill="#ffffff"/>
<path transform="matrix(1,0,0,-1,624.6953,240.01758)" d="M0 0C0-49.226-39.906-89.133-89.135-89.133-138.361-89.133-178.268-49.226-178.268 0-178.268 49.226-138.361 89.133-89.135 89.133-39.906 89.133 0 49.226 0 0" fill="#ffffff"/>
<path transform="matrix(1,0,0,-1,535.5612,153.73871)" d="M0 0C-47.574 0-86.279-38.705-86.279-86.279-86.279-133.853-47.574-172.558 0-172.558 47.574-172.558 86.279-133.853 86.279-86.279 86.279-38.705 47.574 0 0 0M0-178.267C-50.721-178.267-91.988-137.002-91.988-86.279-91.988-35.557-50.721 5.708 0 5.708 50.721 5.708 91.988-35.557 91.988-86.279 91.988-137.002 50.721-178.267 0-178.267" fill="#243467"/>
<path transform="matrix(1,0,0,-1,466.026,239.41968)" d="M0 0C0 37.593 30.474 68.064 68.064 68.064 105.657 68.064 136.131 37.593 136.131 0 136.131-37.59 105.657-68.064 68.064-68.064 30.474-68.064 0-37.59 0 0" fill="#243467"/>
<path transform="matrix(1,0,0,-1,498.585,226.75537)" d="M0 0H-7.336V4.977C-1.403 4.977 .702 6.253 2.297 10.592H7.018V-34.071H0Z" fill="#ffffff"/>
<path transform="matrix(1,0,0,-1,527.8701,234.15583)" d="M0 0V7.91C0 10.846-1.211 12.25-3.636 12.25-6.061 12.25-7.274 10.846-7.274 7.91V0C-7.274-2.999-6.061-4.403-3.636-4.403-1.211-4.403 0-2.999 0 0M-14.164-16.079V-15.25H-7.529V-16.526C-7.529-19.716-6.125-20.929-3.891-20.929-1.403-20.929 0-19.716 0-15.44V-6.892H-.127C-1.339-9.443-3.381-10.783-6.507-10.783-11.676-10.783-14.292-7.147-14.292-.574V7.4C-14.292 14.547-10.526 18.631-3.636 18.631 3.254 18.631 7.018 14.547 7.018 7.4V-15.697C7.018-23.225 3.573-27.309-3.7-27.309-10.591-27.309-14.164-23.225-14.164-16.079" fill="#ffffff"/>
<path transform="matrix(1,0,0,-1,553.7742,250.74597)" d="M0 0V7.912C0 10.911-1.212 12.314-3.636 12.314-6.061 12.314-7.273 10.911-7.273 7.912V0C-7.273-2.934-6.061-4.339-3.636-4.339-1.212-4.339 0-2.934 0 0M-14.292 .511V23.607C-14.292 31.137-10.847 35.221-3.573 35.221 3.317 35.221 6.89 31.137 6.89 23.991V23.161H.256V24.438C.256 27.628-1.148 28.841-3.381 28.841-5.87 28.841-7.273 27.628-7.273 23.352V14.804H-7.145C-5.934 17.355-3.893 18.695-.766 18.695 4.404 18.695 7.019 15.059 7.019 8.486V.511C7.019-6.635 3.253-10.719-3.636-10.719-10.528-10.719-14.292-6.635-14.292 .511" fill="#ffffff"/>
<path transform="matrix(1,0,0,-1,565.1967,255.97779)" d="M0 0C0 6.382 1.787 10.273 7.018 15.76 12.379 21.439 13.909 24.82 13.909 28.967 13.909 32.987 12.504 34.072 10.271 34.072 8.039 34.072 6.634 32.86 6.634 29.67V24.884H0V29.222C0 36.369 3.573 40.453 10.464 40.453 17.354 40.453 20.927 36.369 20.927 29.222 20.927 23.926 18.759 19.206 12.25 12.314 8.039 7.848 6.954 5.615 6.954 2.489V1.532H20.289V-4.849H0Z" fill="#ffffff"/>
<path transform="matrix(1,0,0,-1,252.4773,890.6357)" d="M0 0-18.279 15.665 51.316 96.877 69.596 81.212Z" fill="#243467"/>
<path transform="matrix(1,0,0,-1,407.5897,975.9254)" d="M0 0-12.893 5.483-48.376 102.789-77.98 33.15-89.745 38.153-47.903 136.582-33.384 130.408 1.257 35.639 30.077 103.432 41.842 98.429Z" fill="#243467"/>
<path transform="matrix(1,0,0,-1,549.5946,952.6483)" d="M0 0-13.719 36.503-28.785 .457ZM40.822-41.832 14.013-41.406 3.224-9.413-32.567-8.841-45.397-40.461-59.813-40.23-13.233 65.996-1.128 65.803Z" fill="#243467"/>
<path transform="matrix(1,0,0,-1,689.5118,888.9996)" d="M0 0C-2.509 6.89-5.859 11.258-10.054 13.112-14.252 14.96-18.605 15.066-23.121 13.421L-30.279 10.818-15.693-29.259C-8.791-26.747-3.755-23.157-.583-18.48 2.587-13.806 2.785-7.646 0 0M22.207 11.361C26.608-.725 25.694-10.611 19.47-18.293 13.243-25.981 2.589-32.564-12.49-38.053L3.102-80.894-19.52-89.128-56.101 11.375-21.337 24.03C-10.603 27.937-1.533 29.195 5.873 27.804 13.279 26.41 18.725 20.93 22.207 11.361" fill="#243467"/>
<path transform="matrix(1,0,0,-1,827.4207,844.3799)" d="M0 0-34.557 18.07-21.766-18.842ZM58.314-3.98 38.044-21.529 8.677-4.867-18.388-28.297-6.879-60.418-17.78-69.856-53.849 40.383-44.695 48.307Z" fill="#243467"/>
<path transform="matrix(1,0,0,-1,173.4118,701.67678)" d="M0 0C-1.713 4.028-4.525 5.734-10.027 3.395L-15.333 1.14C-20.246-.95-21.697-3.54-20.069-7.37L-17.98-12.284 1.671-3.93ZM-23.212-27.268-30.02-11.252C-34.78-.053-31.62 6.977-21.008 11.487L-16.784 13.282C-9.71 16.289-4.228 15.952-.217 11.972L-.021 12.055C-.648 18.171 3.71 22.109 11.473 25.409L23.557 30.546C26.898 31.968 29.313 33.111 31.408 35.277L36.085 24.272C34.567 22.931 33.654 22.078 28.053 19.698L15.477 14.352C9.091 11.637 7.82 8.892 9.909 3.98L11.496 .245 40.972 12.777 45.566 1.968Z" fill="#243467"/>
<path transform="matrix(1,0,0,-1,125.9212,664.6164)" d="M0 0-7.866 31.043 2.482 33.665 7.463 14.004 26.608 18.854 22.648 34.479 32.996 37.102 36.956 21.476 59.203 27.112 54.222 46.774 64.57 49.396 72.436 18.352Z" fill="#243467"/>
<path transform="matrix(1,0,0,-1,144.358,581.2096)" d="M0 0C-.362 3.718-2.259 5.57-7.57 5.052L-16.387 4.192C-21.698 3.674-23.2 1.49-22.838-2.228L-22.299-7.752 .539-5.523ZM-31.781-20.473-33.461-3.265C-34.601 8.419-28.68 14.788-16.784 15.949L-9.455 16.664C2.443 17.825 9.482 12.721 10.623 1.037L11.162-4.488 41.435-1.533 42.575-13.218Z" fill="#243467"/>
<path transform="matrix(1,0,0,-1,165.5417,538.5272)" d="M0 0-56.909 3.233-56.244 14.957 1.518 11.675C6.847 11.372 8.893 13.502 9.105 17.231 9.317 20.962 7.524 23.309 2.196 23.612L-55.566 26.892-54.924 38.189 1.986 34.956C13.921 34.279 20.403 27.922 19.75 16.413 19.096 4.903 11.935-.677 0 0" fill="#243467"/>
<path transform="matrix(1,0,0,-1,181.7877,461.9005)" d="M0 0C.843 3.859-.475 6.333-5.898 7.517L-12.261 8.907C-19.042 10.387-21.606 8.652-22.745 3.437L-23.861-1.674-1.434-6.571ZM-33.311 5.088C-32.378 9.365-33.686 12.383-39.527 13.658L-43.595 14.547C-48.81 15.686-51.493 14.413-52.381 10.345L-53.588 4.818-34.291 .603ZM-66.525-4.379-62.743 12.936C-60.146 24.827-53.503 28.732-42.238 26.271L-39.317 25.634C-31.806 23.993-27.614 20.674-26.644 15.107L-26.435 15.061C-23.005 20.76-17.057 21.975-9.339 20.289L-3.08 18.923C8.185 16.462 12.936 9.195 10.432-2.277L6.49-20.322Z" fill="#243467"/>
<path transform="matrix(1,0,0,-1,132.7153,399.7918)" d="M0 0 4.206 10.961 63.994-11.983 70.915 6.054 80.88 2.23 69.753-26.767Z" fill="#243467"/>
<path transform="matrix(1,0,0,-1,156.6836,344.151)" d="M0 0 5.499 10.376 71.533-24.622 66.033-34.999Z" fill="#243467"/>
<path transform="matrix(1,0,0,-1,225.4039,339.04743)" d="M0 0-32.817 23.107C-42.243 29.744-44.387 38.564-37.873 47.815-31.359 57.066-22.332 58.021-12.907 51.384L-6.447 46.837-12.838 37.76-19.909 42.738C-23.924 45.565-26.934 44.812-28.962 41.933-30.99 39.052-30.683 35.964-26.668 33.137L7.458 9.109C11.473 6.283 14.395 7.097 16.423 9.977 18.452 12.857 18.232 15.884 14.218 18.71L4.879 25.285 11.269 34.362 19.91 28.279C29.337 21.642 31.482 12.822 24.968 3.571 18.454-5.682 9.425-6.637 0 0" fill="#243467"/>
<path transform="matrix(1,0,0,-1,270.4779,271.3626)" d="M0 0-30.201 21.9-30.35 21.747-7.343-7.601ZM-44.834 25.497-33.782 36.938 28.42-6.228 20.261-14.674 8.106-5.899 8.259-6.049-1.013-15.645 8.023-27.342 .459-35.175Z" fill="#243467"/>
<path transform="matrix(1,0,0,-1,796.6039,269.56343)" d="M0 0C2.748-2.529 5.7-2.635 9.315 1.292L35.63 29.875C39.246 33.801 38.897 36.733 36.149 39.262L31.751 43.311-4.396 4.049ZM30.343 59.117 43.535 46.971C52.173 39.018 52.003 30.323 43.906 21.529L18.313-6.269C10.216-15.063 1.566-15.949-7.071-7.997L-20.264 4.149Z" fill="#243467"/>
<path transform="matrix(1,0,0,-1,845.0562,313.3147)" d="M0 0 31.993 25.288C36.18 28.598 36.316 31.699 34 34.63 31.681 37.562 28.634 38.146 24.448 34.836L-7.545 9.548C-11.735 6.238-11.868 3.138-9.552 .206-7.236-2.725-4.187-3.31 0 0M-14.241 19.224 16.579 43.586C25.958 51 35.224 50.295 42.373 41.25 49.523 32.205 48.07 23.028 38.688 15.613L7.869-8.748C-1.511-16.162-10.776-15.459-17.925-6.414-25.075 2.631-23.623 11.81-14.241 19.224" fill="#243467"/>
<path transform="matrix(1,0,0,-1,917.3178,315.61573)" d="M0 0 7.927-14.77-35.669-46.643-35.569-46.831 15.093-28.128 23.018-42.897-42.833-78.231-48.081-68.447 1.776-41.696 1.675-41.508-52.221-60.735-56.864-52.08-11.043-17.801-11.147-17.613-61.004-44.365-65.851-35.334Z" fill="#243467"/>
<path transform="matrix(1,0,0,-1,953.0096,390.42488)" d="M0 0 3.958-11.057-66.405-36.24-70.363-25.182Z" fill="#243467"/>
<path transform="matrix(1,0,0,-1,966.8822,433.29689)" d="M0 0 3.083-14.406-38.267-34.938-38.223-35.147 5.519-25.786 7.707-36.017-65.369-51.656-67.894-39.859-17.496-14.663-17.541-14.454-70.888-25.871-73.076-15.64Z" fill="#243467"/>
<path transform="matrix(1,0,0,-1,978.5277,502.37678)" d="M0 0 .92-11.704-73.558-17.557-74.478-5.853Z" fill="#243467"/>
<path transform="matrix(1,0,0,-1,923.2939,543.5569)" d="M0 0 40.087-1.834C51.602-2.361 58.152-8.643 57.634-19.945 57.118-31.246 50.021-36.904 38.507-36.378L30.619-36.017 31.126-24.929 39.761-25.323C44.664-25.549 46.797-23.295 46.958-19.776 47.12-16.259 45.202-13.82 40.296-13.597L-1.391-11.689C-6.294-11.464-8.32-13.722-8.482-17.24-8.644-20.759-6.832-23.192-1.926-23.416L9.482-23.938 8.975-35.026-1.58-34.543C-13.095-34.017-19.645-27.734-19.13-16.433-18.611-5.131-11.514 .527 0 0" fill="#243467"/>
<path transform="matrix(1,0,0,-1,921.6855,624.82998)" d="M0 0 37.239-2.244 37.281-2.035 2.107 10.356ZM51.513 2.587 48.341-13.003-27.316-10.02-24.974 1.488-10.006 .619-10.216 .663-7.554 13.739-21.46 18.749-19.288 29.419Z" fill="#243467"/>
<path transform="matrix(1,0,0,-1,958.5536,680.4568)" d="M0 0-5.235-13.769-51.1-8.552-51.178-8.752-9.371-24.646-13.087-34.424-82.932-7.871-78.645 3.403-22.653-2.81-22.575-2.609-73.563 16.774-69.845 26.552Z" fill="#243467"/>
<path transform="matrix(1,0,0,-1,876.1099,740.2897)" d="M0 0 34.571-14.009 34.68-13.825 5.304 9.142ZM49.64-13.99 41.657-27.745-29.08-.775-23.188 9.382-9.282 3.782-9.469 3.891-2.771 15.431-14.349 24.618-8.886 34.033Z" fill="#243467"/>
</g>
</svg>
